<svg width="64" height="64" viewBox="0 0 64 64" fill="none" xmlns="http://www.w3.org/2000/svg">
<mask id="mask0_899_1226" style="mask-type:alpha" maskUnits="userSpaceOnUse" x="0" y="0" width="64" height="64">
<path d="M64 32C64 14.3269 49.673 0 32 0C14.3269 0 0 14.3269 0 32C0 49.673 14.3269 64 32 64C49.673 64 64 49.673 64 32Z" fill="url(#paint0_radial_899_1226)"/>
</mask>
<g mask="url(#mask0_899_1226)">
<path d="M64.0078 32C64.0078 14.3269 49.6808 0 32.0078 0C14.3347 0 0.0078125 14.3269 0.0078125 32C0.0078125 49.673 14.3347 64 32.0078 64C49.6808 64 64.0078 49.673 64.0078 32Z" fill="url(#paint1_radial_899_1226)"/>
<path d="M53.7651 22.0211C53.6313 22.8044 53.4744 23.1842 53.2909 23.6239L53.2905 23.6249C53.0922 24.1013 52.8673 24.6421 52.6638 25.7151C52.5828 26.1445 52.5424 26.4597 52.5073 26.7374L52.5048 26.7546L52.5028 26.7708C52.4462 27.2154 52.4083 27.5151 52.2275 28.0484C52.081 28.4836 51.8357 29.2103 51.2452 29.9929C50.7682 30.6262 49.9698 31.6861 48.9044 31.813C48.8119 31.8192 48.6184 31.8289 48.5395 31.7885C45.5171 30.2451 42.9203 29.1048 42.0214 28.8489C40.976 28.5526 41.1099 26.2731 41.2282 24.262C41.2813 23.3632 41.3313 22.5133 41.2892 21.7856C41.1423 19.2467 40.6929 16.4678 38.4817 15.113C37.1617 14.3046 35.4589 14.0673 33.832 14.0638C34.1335 13.9203 34.4698 13.7255 34.836 13.5123L34.8474 13.5058C35.8052 12.9512 36.9944 12.2624 38.1761 12.1413C38.5624 12.103 38.9421 12.0585 39.3167 12.0168C41.6986 11.7471 43.7567 11.5153 45.9271 12.2586C46.9112 12.5962 48.9295 13.7224 49.4507 14.7678C49.8177 15.5059 50.4368 16.0812 51.6719 17.2294C52.3148 17.8274 52.7383 18.1754 53.0484 18.43L53.0626 18.4417C53.4978 18.7997 53.5837 18.8746 53.7134 19.1391C54.1135 19.9548 53.9676 20.8212 53.7651 22.0211Z" fill="white"/>
<path d="M42.7695 32.4485C42.9126 32.4978 42.9661 32.6716 42.883 32.7978C42.5601 33.2876 42.1904 33.9595 41.7472 34.781C41.5392 35.1683 41.3423 35.5339 41.1771 35.8191C40.5914 36.8249 40.5438 37.6713 40.5066 38.3508C40.4662 39.0613 40.4303 39.3875 40.0058 39.6707C39.6553 39.9056 39.2963 39.9839 36.8078 40.3629C36.3736 40.4302 36.1808 40.5143 36.0114 40.5882C35.9652 40.6082 35.9193 40.6282 35.8669 40.6478C35.7231 40.7016 35.5824 40.5792 35.591 40.4264C35.6106 40.0677 35.6234 39.6197 35.6248 39.0561V38.9481C35.6379 38.4604 35.6175 38.0648 35.5999 37.7458C35.5672 37.1105 35.563 36.8428 35.7324 36.5662C35.9404 36.232 36.1025 36.1299 36.3691 35.9609C36.7412 35.7271 37.2517 35.4053 38.007 34.3672C38.4085 33.8174 38.4975 33.5194 38.553 33.2617C38.5772 33.1548 38.5858 33.1148 38.8948 32.8806C39.2215 32.6326 40.2172 31.8783 41.4916 32.0925C41.8441 32.1522 42.2932 32.2839 42.7695 32.4485Z" fill="white"/>
<path d="M32.8685 43.9208C32.8143 43.9916 32.7509 44.0243 32.6595 44.0288C32.3994 44.0398 32.2166 43.9753 32.0955 43.8298C31.8389 43.5173 31.8734 42.8896 31.9334 42.5226L32.9857 42.2422C33.0682 42.7992 33.1068 43.6108 32.8685 43.9208Z" fill="white"/>
<path d="M32.9493 40.1317C32.9317 40.2851 32.9124 40.4579 32.9131 40.6387C32.9145 40.7059 32.9152 40.7739 32.9173 40.8398C32.9193 41.0119 32.9262 41.285 32.9024 41.4092C32.5737 41.5289 32.293 41.5289 31.9239 41.5223C31.9184 41.4157 31.9253 41.2567 31.9294 41.1495C31.9315 41.0667 31.936 40.9843 31.937 40.9056C31.9381 40.8184 31.937 40.7325 31.937 40.6466C31.9357 40.4441 31.9329 40.1123 31.9826 40.0147C32.0816 40.0003 32.183 39.9785 32.2916 39.9537C32.5092 39.9068 32.7931 39.8468 32.9738 39.874C32.9711 39.9444 32.96 40.0489 32.9493 40.1317Z" fill="white"/>
<path d="M31.0094 43.5988C30.9587 44.1382 30.7921 44.8053 30.2861 44.9067C30.0585 44.9536 29.9485 44.8849 29.8792 44.8198C29.5374 44.5031 29.4829 43.5464 29.5305 42.8621C29.7581 42.8662 30.0564 42.8152 30.4096 42.7469C30.6252 42.7041 30.8397 42.6565 31.0104 42.6172C31.0301 42.8703 31.0442 43.2318 31.0094 43.5988Z" fill="white"/>
<path d="M30.7588 41.6612L29.6172 42.0616C29.6751 41.6184 29.7524 40.9949 29.7796 40.5806C29.7993 40.2888 29.8786 40.1995 29.9014 40.1802C29.909 40.1736 29.9242 40.1598 29.9666 40.1598C29.9731 40.1598 29.9797 40.1609 29.9869 40.1609L30.0111 40.1643L30.7323 40.125C30.763 40.464 30.763 41.2087 30.7588 41.6612Z" fill="white"/>
<path d="M28.923 41.3101C28.8585 41.4819 28.7823 41.9685 28.7347 42.311L27.3047 42.2676C27.3854 41.8247 27.4971 41.3739 27.6199 41.0149C27.7441 40.6579 27.8779 40.3903 28.0011 40.3151C28.1445 40.2288 28.4605 40.2095 28.654 40.3747C28.9685 40.6431 29.0554 40.95 28.923 41.3101Z" fill="white"/>
<path d="M28.3865 45.6893C28.2758 45.8407 28.1527 45.9176 28.0002 45.9338C27.8447 45.9514 27.7236 45.9165 27.6271 45.8262C27.178 45.4116 27.2146 44.0534 27.2311 43.4005C27.824 43.2653 28.4641 43.1504 28.7677 43.1328C28.8132 43.6795 28.8263 45.0908 28.3865 45.6893Z" fill="white"/>
<path d="M26.5227 42.2316C26.453 42.4179 26.3854 42.5938 26.3343 42.7497C26.1681 42.8017 25.6597 42.7562 25.1406 42.6417L25.4976 40.3912C26.0839 40.2356 26.7641 40.1856 26.9286 40.3598C27.1452 40.5899 26.7099 41.7412 26.5227 42.2316Z" fill="white"/>
<path d="M25.8728 46.0283C25.5955 46.3701 25.1795 46.5298 24.5994 46.5236C24.1979 46.5171 24.0544 46.3646 23.9827 46.2504C23.6606 45.7403 23.9758 44.5376 24.2917 43.7695L26.2287 43.8858C26.2484 44.0206 26.2646 44.1848 26.2722 44.3635C26.2936 44.9101 26.2249 45.591 25.8728 46.0283Z" fill="white"/>
<path d="M41.8846 29.704C40.1408 29.2101 40.2908 26.6602 40.436 24.1958C40.4874 23.3239 40.536 22.4992 40.4964 21.8253C40.3625 19.5186 39.9745 17.0063 38.1193 15.8691C36.1236 14.6488 32.8593 14.9268 30.845 15.1831C30.8433 15.1835 30.8416 15.1845 30.8398 15.1848C30.8388 15.1848 30.8381 15.1848 30.8374 15.1852C30.0997 15.4087 29.4095 15.5535 28.8746 15.5252C27.686 15.4638 26.7613 14.9634 25.947 14.5243C25.3117 14.1801 24.7574 13.8828 24.2356 13.8828C24.208 13.8828 24.179 13.8828 24.1504 13.8838C22.589 13.9853 21.8712 14.3667 21.2194 14.9486C21.0555 15.0934 20.8555 15.5139 20.2009 17.4002C19.8704 18.3535 19.8094 18.875 19.748 19.382C19.6928 19.8452 19.6366 20.3215 19.3903 21.032C19.2189 21.5225 19.0923 21.9453 18.9699 22.353C18.6471 23.4364 18.3918 24.2897 17.6251 25.3044C17.5351 25.4244 17.4237 25.601 17.2947 25.8021C17.1209 26.0759 16.9056 26.4163 16.6218 26.8106C16.4214 27.0882 15.9613 28.1274 15.9865 28.444C16.0241 28.9483 16.1879 29.2611 16.3755 29.6264C16.5621 29.9865 16.7746 30.3941 16.8132 30.957L16.8198 31.0484C16.8881 31.9414 16.7608 32.3894 15.0621 33.9067C13.976 34.8787 13.2045 35.8148 12.684 36.5018C12.6381 36.5625 12.6978 36.6525 12.7737 36.6463C12.7913 36.6439 12.8089 36.6429 12.8251 36.6429C12.8578 36.6401 12.8902 36.6391 12.9227 36.6391C12.9551 36.6391 12.9879 36.6401 13.0199 36.6415C13.0527 36.6429 13.0841 36.6453 13.1162 36.6501C13.5269 36.697 13.9274 36.8709 14.2164 37.1703C14.2668 37.2223 14.3451 37.2365 14.412 37.2096C14.6886 37.0944 14.9924 37.1133 15.2829 37.1406C15.6416 37.1737 16.0037 37.281 16.2417 37.5124C16.3134 37.5824 16.4159 37.6179 16.5138 37.5955C16.7949 37.5317 17.0898 37.5376 17.3633 37.6369C17.5792 37.7173 17.7607 37.8442 17.9048 38.0039C18.0055 38.1156 18.1842 38.137 18.3104 38.0556C18.3891 38.0049 18.4757 37.9622 18.5719 37.9297C18.9406 37.8045 19.3486 37.8759 19.7066 38.0046C19.8829 38.068 20.0677 38.1246 20.2267 38.2308C20.5189 38.4254 20.6972 38.7096 20.811 39.0272C20.8755 39.2062 21.1166 39.2683 21.2628 39.1466C21.5257 38.9279 21.7336 38.891 21.9433 38.9841C22.0503 39.0324 22.1248 39.0986 22.1748 39.1817C22.262 39.3263 22.4397 39.4453 22.6021 39.3997C23.1729 39.2407 23.8876 39.3235 24.4053 39.6008C24.5881 39.6967 24.7678 39.8433 24.8988 40.0647L24.8992 40.065C24.8995 40.0661 24.9006 40.0657 24.9006 40.0647L24.9157 39.9664C24.9226 39.9219 24.954 39.885 24.9971 39.8716L25.1172 39.8346C25.4 39.7446 26.841 39.3294 27.4015 39.9195C27.4256 39.9436 27.4677 39.9461 27.4911 39.9209C27.5674 39.8371 27.6294 39.7912 27.6691 39.7684C28.034 39.547 28.66 39.5332 29.0763 39.8898C29.1601 39.9602 29.296 39.9347 29.3591 39.845C29.3981 39.7902 29.4423 39.7415 29.4919 39.6998C29.6382 39.5736 29.8234 39.5132 30.0286 39.526L30.8202 39.4832C31.0192 39.4722 31.6379 39.4301 31.8328 39.389C31.8476 39.3859 31.8628 39.3832 31.8783 39.3808C31.9608 39.368 32.0587 39.347 32.1612 39.3256C32.545 39.2418 32.9807 39.1476 33.3383 39.3128C33.6819 39.4718 33.6384 39.8633 33.597 40.2085C33.5808 40.3486 33.5632 40.4948 33.5646 40.6338C33.567 40.6986 33.5684 40.7638 33.5694 40.8304C33.5746 41.128 33.5808 41.4029 33.5218 41.614V41.6154V41.6164L33.558 41.7799C33.5598 41.7861 33.5615 41.7941 33.5635 41.8037C33.596 41.9534 33.7567 42.0369 33.8874 41.9572C34.1633 41.7889 34.4534 41.5702 34.5409 41.4443C34.5474 41.4347 34.5526 41.4247 34.5564 41.4136C34.5685 41.3819 34.5909 41.3133 34.6154 41.1698C34.6643 40.8756 34.7192 40.2779 34.724 39.0641C34.724 39 34.724 38.9541 34.7254 38.9327C34.7354 38.4823 34.7178 38.1208 34.7002 37.8018C34.6678 37.1437 34.6412 36.626 34.9679 36.099C35.2859 35.5861 35.5946 35.3923 35.8912 35.2043C36.2361 34.988 36.6255 34.7425 37.2811 33.8432C37.6026 33.4003 37.6423 33.2217 37.6737 33.0789C37.745 32.7447 37.8554 32.5436 38.3517 32.1683C38.756 31.8631 39.9856 30.9312 41.6446 31.2102C42.1885 31.3026 43.0704 31.5927 43.9406 31.9355C43.9406 31.9355 43.9413 31.9359 43.942 31.9359H43.943C43.9754 31.9455 44.0089 31.9569 44.0396 31.9731C44.0506 31.979 44.062 31.9845 44.0737 31.9893C44.8511 32.2997 45.6075 32.6464 46.0921 32.9233C46.2049 32.9878 46.3494 32.9506 46.4287 32.8474C46.5874 32.6415 46.7605 32.5222 46.9471 32.4101C47.0171 32.3677 47.071 32.3353 47.1223 32.2915C47.1399 32.2766 47.1572 32.2621 47.1741 32.2483C47.3189 32.1311 47.3186 31.8803 47.1527 31.7948C44.8146 30.5859 42.6124 29.9109 41.8846 29.704ZM25.2679 30.2407C24.7284 32.6012 21.0718 35.196 19.4097 35.196H19.3769C19.3507 35.1946 19.3217 35.1922 19.2907 35.187C19.2593 35.1822 19.2255 35.1746 19.1896 35.1646C19.172 35.1595 19.153 35.1532 19.1344 35.1484C18.8326 35.0532 18.4149 34.8214 18.0987 34.5103C17.881 34.2967 17.7096 34.0446 17.6558 33.7732C17.6458 33.7256 17.6358 33.6783 17.6255 33.6307C17.5358 33.2293 17.424 32.7278 17.7783 31.9069C17.8272 31.7969 17.8707 31.6941 17.9107 31.6003C17.9235 31.5692 17.9373 31.5378 17.9497 31.5078C17.9873 31.4192 18.0207 31.3378 18.0511 31.264C18.1011 31.1391 18.1421 31.0329 18.1759 30.9425C18.1897 30.9074 18.2025 30.8736 18.2135 30.8425C18.3149 30.5587 18.3273 30.4524 18.3411 30.3424C18.3539 30.2562 18.3663 30.1506 18.4015 30.0006C18.5053 29.5577 18.5591 29.1825 18.6067 28.8483C18.6919 28.2474 18.7657 27.7287 19.0896 27.252C19.1448 27.171 19.2058 27.0968 19.2748 27.032C19.2986 27.0095 19.3214 26.9882 19.3458 26.9668C19.371 26.9454 19.3962 26.9268 19.4207 26.9078C19.4993 26.8526 19.5835 26.804 19.6745 26.7626C19.7059 26.7488 19.7373 26.735 19.7684 26.724C19.8325 26.7002 19.8998 26.6798 19.9701 26.6623C20.2678 26.5902 20.6192 26.5788 21.0231 26.6298C21.4649 26.665 21.874 26.7485 22.2365 26.8499C22.5393 26.9334 22.8097 27.0313 23.0384 27.1224C23.0622 27.1313 23.085 27.1399 23.1074 27.15C23.1512 27.1675 23.1936 27.1851 23.235 27.2041C23.2978 27.2303 23.355 27.2555 23.4088 27.2789C23.4802 27.3114 23.5454 27.3403 23.603 27.3662L23.6568 27.3914C23.9121 27.5076 24.1314 27.6352 24.3187 27.7691C24.4111 27.837 24.4977 27.9056 24.575 27.9753C24.6015 27.9981 24.6267 28.0219 24.6498 28.0467C24.675 28.0708 24.6988 28.0946 24.7212 28.1184C25.4238 28.8583 25.3889 29.714 25.2679 30.2407ZM26.9624 21.2935L26.8913 21.7215C26.7275 22.6858 26.3509 24.0082 24.9623 24.3486C23.6265 24.6753 23.3098 24.7449 22.3589 24.7877C22.3379 24.7901 22.3151 24.7901 22.2927 24.7901C21.5984 24.7901 20.2623 24.3524 20.0257 23.2639C19.8742 22.5634 20.1833 22.0557 20.6924 21.2138C20.7772 21.0748 20.869 20.9258 20.9662 20.7595C21.6391 19.6258 21.9044 18.8053 22.1175 18.1472C22.3248 17.5043 22.4976 16.9728 22.9418 16.5324C23.0443 16.4299 23.1605 16.3334 23.2957 16.2409C23.3819 16.182 23.472 16.1295 23.5671 16.0806C23.6934 16.0178 23.8258 15.9633 23.9648 15.9191C24.2739 15.8205 24.6077 15.7705 24.9419 15.7705C25.5897 15.7705 26.2367 15.9567 26.6982 16.3272C26.9058 16.4934 27.2011 16.8259 27.3725 17.8068C27.4608 18.3121 27.3104 19.2406 26.9624 21.2935ZM36.869 24.0382C36.3909 24.8587 36.1295 25.3106 35.7167 25.6493C34.8975 26.3222 33.9419 26.4926 33.1548 26.4926C32.5895 26.4926 32.1094 26.4053 31.8266 26.3536C31.0133 26.2049 29.4999 25.9297 28.9956 24.7349C28.897 24.4987 28.8959 24.3486 28.8959 24.1582C28.8959 23.9703 28.8959 23.6543 28.8083 22.9021L28.8035 22.8521C28.7632 22.5117 28.7183 22.1264 28.8159 21.6322L28.8273 21.5732C29.1125 20.1225 29.1898 19.9007 29.254 19.7755C29.4016 19.4903 29.7517 19.3778 30.0369 19.5244C30.3132 19.6683 30.4284 20.0032 30.2983 20.2846C30.2694 20.367 30.1883 20.6761 29.9679 21.7984L29.9565 21.8574C29.8938 22.174 29.9213 22.4141 29.9579 22.7183L29.9627 22.7697C30.0576 23.5864 30.0576 23.9565 30.0576 24.1569C30.0576 24.1924 30.0576 24.231 30.059 24.2541C30.0593 24.2631 30.0638 24.2748 30.0666 24.2834C30.1611 24.5076 30.3742 24.6777 30.6339 24.8084C30.7953 24.8894 30.964 24.7353 30.9281 24.5583C30.6698 23.2798 30.6839 21.7884 31.1723 20.8668C31.3324 20.5608 31.6283 20.0601 31.9094 19.5927C31.9104 19.5913 31.9111 19.5903 31.9118 19.5889C31.9125 19.5876 31.9135 19.5865 31.9142 19.5851C31.9428 19.5379 31.9711 19.4913 31.9994 19.4444C32.0232 19.4041 32.047 19.3658 32.0691 19.3282C32.1929 19.1226 32.3091 18.934 32.4023 18.7839C32.4147 18.7625 32.4271 18.7412 32.4398 18.7211C32.4485 18.706 32.4574 18.6922 32.4661 18.6798C32.4861 18.647 32.5037 18.617 32.5202 18.5911C32.5275 18.5787 32.535 18.5673 32.5412 18.5559C32.545 18.5511 32.5478 18.5459 32.5502 18.5421C32.5588 18.527 32.5678 18.5132 32.5754 18.5021C32.5902 18.4783 32.6016 18.4607 32.6078 18.4494C32.6085 18.4483 32.6088 18.4476 32.6092 18.4466C32.6106 18.4442 32.6133 18.4404 32.6147 18.438C32.6157 18.4363 32.6161 18.4359 32.6171 18.4342C32.714 18.2931 32.8099 18.159 32.9031 18.0327C33.0296 17.8613 32.883 17.6368 32.6858 17.7175C32.2112 17.911 31.887 18.1583 31.8211 18.2103C31.5696 18.4107 31.204 18.3693 31.0054 18.1179C30.8064 17.8668 30.8478 17.5002 31.0992 17.2998C31.3982 17.0649 32.9831 15.9088 34.881 16.4517C36.2485 16.8407 36.9652 17.8854 37.2353 18.2783C37.4529 18.5973 38.12 19.5658 38.0986 20.9179C38.0827 21.9491 37.6526 22.691 36.869 24.0382Z" fill="white"/>
<path d="M24.5426 16.9648C24.4454 17.2001 24.3291 17.4915 24.2042 17.8081C23.9124 18.5414 23.5817 19.3719 23.4227 19.673C23.1485 20.1935 22.935 20.5218 22.7646 20.7864C22.5694 21.0902 22.4139 21.3307 22.2966 21.6659C22.0907 22.2522 22.0538 22.9076 22.1876 23.6201C21.8241 23.5801 21.2291 23.3297 21.1619 23.0141C21.1115 22.7793 21.2574 22.5223 21.6875 21.8149C21.7737 21.6738 21.8661 21.5204 21.9672 21.3496C22.7063 20.1049 23.0054 19.1788 23.2254 18.5017C23.4627 17.765 23.5748 17.456 23.9525 17.198C24.1215 17.0804 24.3271 17.0055 24.5426 16.9648Z" fill="white"/>
<path d="M23.8105 43.0667C23.4077 43.8896 22.9062 44.6491 22.5937 45.0254C22.335 44.3259 21.8853 42.7232 22.0039 41.4336C22.0074 41.3963 22.0115 41.3594 22.017 41.3235C22.0646 40.9252 22.1705 40.5599 22.3588 40.2671C22.483 40.0746 22.8269 39.957 23.2173 39.957C23.5056 39.957 23.8192 40.0201 24.0892 40.165H24.0913C24.2358 40.2423 24.4327 40.3989 24.4534 40.8538C24.4831 41.4684 24.1903 42.2945 23.8105 43.0667Z" fill="white"/>
<path d="M45.8876 33.8376C45.9187 33.8628 45.9383 33.9007 45.9204 33.9366C45.8 34.1784 45.6558 34.3481 45.4855 34.5479C45.2799 34.7928 45.0447 35.0701 44.826 35.503C44.5145 36.1166 44.4149 36.6767 44.3624 38.1098C44.3007 39.7933 44.3659 40.7386 44.4149 41.4281C44.4614 42.0941 44.4901 42.4956 44.3714 43.1451C44.132 44.4554 43.5716 45.3228 42.8618 46.4206C41.9736 47.7937 41.0551 49.2133 39.5341 49.6658C39.3927 49.7093 39.3879 49.709 38.9912 49.7103C38.646 49.7103 38.0717 49.7121 36.9846 49.7521C34.9976 49.8241 34.0008 49.86 33.1478 50.0238C32.2531 50.197 31.7865 50.387 31.3339 50.5698C30.9256 50.735 30.5396 50.892 29.7998 51.0441C29.3587 51.1331 28.6996 51.2307 26.4535 51.2341C24.1192 51.2383 22.7099 51.2393 20.8492 51.0272C18.2962 50.7357 17.0145 50.5898 16.1633 50.1353C14.1556 49.0643 13.3078 47.1384 11.9054 43.9476C11.903 43.9421 11.9005 43.9363 11.8981 43.9304C11.8809 43.8907 11.9292 43.8528 11.9665 43.8749C12.033 43.9163 12.1023 43.9504 12.1755 43.9749C12.2369 43.9966 12.3006 44.0132 12.3651 44.0239C12.4934 44.0456 12.6273 44.047 12.7632 44.0239C12.787 44.0197 12.8087 44.0139 12.8298 44.0052C12.8339 44.0035 12.8377 44.0018 12.8418 44.0001C12.8656 43.9883 12.8949 43.998 12.9049 44.0225C12.9942 44.2684 13.136 44.4874 13.374 44.6137C13.6123 44.7378 13.8834 44.7471 14.1487 44.7451C14.4218 44.7409 14.6971 44.7258 14.9692 44.693C15.1134 44.6778 15.261 44.7482 15.3161 44.8823C15.5655 45.4866 15.8742 45.924 16.3381 45.9885C16.3633 45.9919 16.3961 45.9964 16.4375 45.9964C16.542 45.9964 16.7034 45.966 16.931 45.8094C17.1073 45.6887 17.3801 45.7594 17.5067 45.9315C17.6226 46.0885 17.7605 46.2016 17.8791 46.2968C18.3568 46.7873 19.5178 47.0225 20.4928 47.0225C21.0247 47.0225 21.5017 46.9525 21.7825 46.8159C22.1839 46.621 22.1839 46.3216 22.1643 46.2006C22.1301 45.9836 22.0991 45.7684 22.0728 45.5553C22.0697 45.5297 22.1084 45.5197 22.1188 45.5435C22.177 45.6708 22.2484 45.8295 22.4385 45.8602C22.4592 45.8622 22.4822 45.8671 22.5085 45.8671C22.7802 45.8671 23.2031 45.9553 23.2759 46.2171C23.3131 46.3506 23.3656 46.4755 23.437 46.5882C23.6001 46.8466 23.9323 47.1542 24.5907 47.1653H24.6417C25.3978 47.1653 25.9814 46.918 26.3749 46.4292C26.4004 46.3979 26.4249 46.3654 26.4483 46.3327C26.5897 46.1333 27.0099 46.1247 27.1896 46.2902C27.392 46.4775 27.6469 46.5741 27.9307 46.5741C27.9763 46.5741 28.0225 46.572 28.0701 46.5665C28.4084 46.5306 28.7013 46.3516 28.9199 46.0457C29.0631 45.846 29.1676 45.6004 29.2438 45.3349C29.2662 45.2566 29.3738 45.2331 29.4338 45.288C29.5783 45.4218 29.8101 45.5632 30.1443 45.5632C30.2257 45.5632 30.3141 45.5546 30.4079 45.5349C31.0646 45.4028 31.3915 44.8592 31.5464 44.2456C31.5515 44.225 31.5812 44.2194 31.595 44.2356C31.7612 44.4381 32.0682 44.6719 32.6025 44.6719C32.6298 44.6719 32.658 44.6719 32.686 44.6706C32.9688 44.6575 33.2071 44.5333 33.3792 44.3112C33.5886 44.0384 33.671 43.6341 33.69 43.2271C33.6955 43.1085 33.772 43.004 33.8817 42.9581C34.4453 42.7225 35.1279 42.2152 35.328 41.8696C35.3349 41.8575 35.3418 41.8448 35.3487 41.8317C35.3946 41.7427 35.4732 41.6727 35.5715 41.654C36.0081 41.5712 36.1985 41.4885 36.3717 41.4133C36.5127 41.3512 36.6262 41.3022 36.9435 41.2529C39.4682 40.8676 39.9611 40.7828 40.5074 40.4186C41.3245 39.8736 41.3659 39.1238 41.4063 38.3981C41.4407 37.7845 41.4801 37.0878 41.9567 36.2707C42.1299 35.9724 42.3296 35.6002 42.542 35.2064C42.9138 34.5169 43.4333 33.5517 43.8051 33.0457C43.8751 32.9502 44.0017 32.9205 44.1107 32.9667C44.9833 33.3375 45.7265 33.7086 45.8876 33.8376Z" fill="white"/>
<path d="M21.3761 41.352C21.2761 42.225 21.215 43.3911 21.3564 44.9101C21.3964 45.3388 21.4523 45.7837 21.5216 46.2345C21.402 46.2997 21.0446 46.3911 20.4093 46.3811C19.4964 46.3628 18.6075 46.1331 18.3406 45.8444L18.2992 45.8072C18.0771 45.6288 17.9315 45.5112 17.9108 45.1925C17.9039 45.0849 17.9501 44.9783 18.0488 44.8276C18.1033 44.7428 18.175 44.6448 18.264 44.5241C18.4175 44.3182 18.6079 44.0616 18.8028 43.7305C19.3743 42.7651 19.5909 42.4671 19.8661 42.0905C19.8878 42.0601 19.9109 42.0294 19.9347 41.998C20.0968 41.7759 20.2872 41.5103 20.5735 41.074C20.7867 40.7502 20.9639 40.4963 21.1102 40.2969C21.354 39.9655 21.5137 39.7855 21.6161 39.6875C21.601 39.8379 21.5672 40.049 21.5344 40.2438C21.4861 40.5436 21.4251 40.9102 21.3761 41.352Z" fill="white"/>
<path d="M20.9547 27.7895C20.9492 27.7971 20.9427 27.8047 20.9371 27.8127C20.8185 27.9772 20.6826 28.1631 20.5205 28.5252C20.0852 29.4927 20.0769 30.0404 20.0701 30.4808C20.0659 30.7116 20.0635 30.8954 20.0004 31.1099C19.9569 31.2514 19.8862 31.4135 19.8045 31.6004C19.5479 32.1881 19.2126 32.9586 19.363 33.9954C19.155 33.8954 18.837 33.6667 18.7929 33.545C18.7818 33.4884 18.7698 33.4329 18.757 33.3774C18.6849 33.0538 18.6373 32.8431 18.8429 32.3695C19.3837 31.1224 19.4503 30.8268 19.4927 30.487C19.5013 30.4129 19.5103 30.3553 19.532 30.2615C19.6462 29.7696 19.7058 29.3485 19.7548 29.0102C19.8276 28.4966 19.8766 28.1569 20.0497 27.9013C20.1128 27.8068 20.2915 27.7578 20.5471 27.7578C20.6481 27.7578 20.7623 27.7654 20.8868 27.783L20.9158 27.7851C20.9285 27.7864 20.942 27.7875 20.9547 27.7895Z" fill="white"/>
<path d="M20.2462 40.0852C20.2169 39.7862 20.1645 39.4865 20.0558 39.2047C20.0483 39.1905 20.0158 39.1184 20.0089 39.1046C19.9893 39.0688 19.9669 39.035 19.9458 38.9994C19.9444 38.9981 19.9437 38.9981 19.9437 38.997C19.9424 38.995 19.9417 38.995 19.9417 38.9939C19.9296 38.9808 19.9186 38.9681 19.9068 38.9556C19.8893 38.9381 19.8703 38.9212 19.8513 38.9056C19.8479 38.9015 19.8448 38.898 19.8417 38.8967C19.833 38.8894 19.8199 38.8791 19.8058 38.8708C19.7827 38.8587 19.7609 38.8456 19.7385 38.8342C19.7316 38.8298 19.7154 38.8232 19.7002 38.8177C19.7002 38.8177 19.6992 38.8177 19.6992 38.8166C19.6958 38.8153 19.6923 38.8146 19.6895 38.8132C19.6861 38.8111 19.684 38.8097 19.682 38.8091C19.6785 38.8077 19.6764 38.807 19.6744 38.807C19.6723 38.807 19.6723 38.8056 19.6723 38.8056C19.6654 38.8022 19.6613 38.8015 19.6582 38.8001C19.484 38.7363 19.3074 38.6663 19.1225 38.639C19.1215 38.639 19.1184 38.638 19.116 38.638H19.1118C19.0911 38.638 19.0487 38.6338 19.0466 38.6338C19.0208 38.6325 18.9956 38.6325 18.9704 38.6338C18.9584 38.6338 18.9466 38.6338 18.9356 38.6349H18.9259C18.9218 38.6349 18.9166 38.6363 18.9111 38.6363C18.909 38.6383 18.9056 38.6383 18.9042 38.6383C18.9032 38.6383 18.9021 38.6383 18.9021 38.6383C18.8607 38.6504 18.8173 38.6614 18.7759 38.6742C18.7583 38.6832 18.739 38.6918 18.7214 38.7028C18.7066 38.7114 18.691 38.7225 18.6759 38.7301C18.6748 38.7311 18.6728 38.7332 18.6704 38.7332L18.6672 38.7366C18.6476 38.7563 18.6269 38.7746 18.6072 38.7942C18.6007 38.8011 18.5824 38.8235 18.5693 38.8401C18.5658 38.8422 18.5638 38.8442 18.5638 38.8463C18.5627 38.8473 18.5627 38.8473 18.5617 38.8484C18.5607 38.8494 18.5607 38.8504 18.5583 38.8515C18.5572 38.8529 18.5572 38.8539 18.5562 38.8539C18.551 38.8632 18.5455 38.8711 18.5434 38.8756C18.4734 38.9843 18.4027 39.0922 18.3299 39.1995C18.1623 39.4564 17.9905 39.712 17.8164 39.9659C17.6574 40.1956 17.4987 40.4253 17.3407 40.6546C17.2524 40.7833 17.1655 40.9102 17.0786 41.0389C17.0634 41.0606 17.0493 41.0823 17.0352 41.1041C17.1383 41.1237 17.2418 41.1441 17.3463 41.1637C17.5801 41.2065 17.8129 41.2475 18.0502 41.28C18.5386 41.3465 19.0353 41.3772 19.5302 41.3596C19.554 41.3583 19.5778 41.3596 19.5999 41.3638C19.7189 41.1941 19.8589 40.9916 20.0376 40.7205C20.1365 40.5691 20.2311 40.4291 20.32 40.2994C20.28 40.2373 20.2549 40.1632 20.2462 40.0852Z" fill="white"/>
<path d="M18.4943 42.0951C18.4522 42.4717 18.0307 43.4464 17.3733 44.3746C16.8229 45.1506 16.4887 45.3389 16.4221 45.3455C16.1565 45.3086 15.8944 44.6512 15.6864 43.9993C15.603 43.7351 15.5274 43.4716 15.4643 43.2509C15.3218 42.7549 15.296 42.0896 15.3208 41.6719C15.8761 41.9795 16.8508 42.0623 18.2201 42.0678H18.2243C18.3146 42.0775 18.4039 42.0875 18.4943 42.0951Z" fill="white"/>
<path d="M17.5242 39.0026C17.5242 39.004 17.5242 39.004 17.5242 39.0047C17.5176 39.0136 17.5121 39.0233 17.5059 39.0319C17.2707 39.3779 17.0337 39.7221 16.7964 40.0666C16.6736 40.2443 16.5519 40.4215 16.4308 40.6002C16.3646 40.6971 16.2753 40.8037 16.198 40.9189C16.0031 40.873 15.8086 40.8285 15.6158 40.774C15.4582 40.7285 15.3026 40.6795 15.1498 40.6185C15.1191 40.6074 15.0898 40.5954 15.0615 40.5816C15.0364 40.5305 15.0005 40.4847 14.957 40.4498C14.9581 40.4488 14.9581 40.4457 14.9591 40.4443C15.0146 40.3312 15.0712 40.217 15.1267 40.1039C15.2323 39.8963 15.3382 39.6897 15.4554 39.4893C15.6648 39.1278 15.9169 38.7601 16.2708 38.5259C16.2884 38.5128 16.3077 38.5008 16.3263 38.489C16.4636 38.4028 16.6009 38.3421 16.7692 38.3214C16.7888 38.3193 16.9075 38.32 16.963 38.3249C16.9727 38.3249 16.9806 38.3259 16.9861 38.3259H16.9871C16.9913 38.3273 16.9992 38.3293 17.0109 38.3335C17.0523 38.3466 17.0941 38.3552 17.1355 38.3694C17.1496 38.3763 17.1624 38.3825 17.1768 38.3901C17.2127 38.4118 17.2496 38.4314 17.2834 38.4587C17.2289 38.4173 17.3586 38.5511 17.3586 38.5415C17.4631 38.686 17.4948 38.807 17.5242 39.0026Z" fill="white"/>
<path d="M15.6641 38.0259C15.2289 38.3839 14.9122 38.8605 14.648 39.3565C14.4997 39.6317 14.3659 39.9125 14.2266 40.1922C14.2124 40.2208 14.1983 40.2481 14.1821 40.276C14.0503 40.2474 13.9186 40.2095 13.7899 40.1684C13.653 40.125 13.5168 40.0749 13.3864 40.0142C13.3267 39.9856 13.2667 39.9563 13.207 39.9249C13.3374 39.678 13.493 39.4407 13.6413 39.2103C13.8503 38.8847 14.0765 38.565 14.3225 38.2645C14.4149 38.1504 14.5128 38.0252 14.6425 37.95C14.775 37.8717 14.9354 37.8903 15.0875 37.8989C15.2485 37.9089 15.4217 37.9131 15.5738 37.9741C15.6052 37.9876 15.6393 38.0086 15.6641 38.0259Z" fill="white"/>
<path d="M14.9768 43.8712C14.955 43.8895 14.9367 43.9092 14.9205 43.9323C14.9054 43.9364 14.8898 43.9399 14.8802 43.9423C14.7757 43.953 14.6691 43.9606 14.5636 43.9675C14.3611 43.9802 14.1555 43.9892 13.951 43.9816C13.8368 43.9775 13.7334 43.9599 13.6865 43.8871C13.6113 43.7729 13.5885 43.5736 13.5616 43.4222C13.4278 42.6789 13.4102 41.9046 13.505 41.1523C13.8934 41.2917 14.2931 41.3996 14.7029 41.4669C14.6146 42.145 14.765 43.1404 14.8529 43.4453C14.894 43.587 14.9354 43.7305 14.9768 43.8712Z" fill="white"/>
<path d="M13.723 37.7762C13.3791 38.1984 13.0659 38.6478 12.7848 39.1134C12.6713 39.3028 12.543 39.4987 12.4485 39.7012C12.3123 39.6632 12.1895 39.6087 12.0591 39.528C11.9591 39.4659 11.8618 39.3973 11.7673 39.3256C11.7435 39.3059 11.6784 39.2549 11.6377 39.2221C11.6283 39.2148 11.6194 39.2073 11.6094 39.2017C11.6408 39.1128 11.6984 39.0134 11.7301 38.9469C11.8022 38.7892 11.8825 38.6344 11.9667 38.4836C12.1264 38.2008 12.305 37.9242 12.5075 37.6697C12.5827 37.5759 12.6541 37.4551 12.771 37.4203C12.8776 37.3899 13.018 37.4041 13.1039 37.4189C13.3584 37.4682 13.5577 37.5838 13.723 37.7762Z" fill="white"/>
<path d="M11.0736 39.605C11.0784 39.5871 11.1018 39.5847 11.1125 39.5998C11.2029 39.7285 11.3288 39.8402 11.464 39.9454C11.5244 39.9913 11.584 40.0368 11.6451 40.0799C11.6527 40.0855 11.6561 40.0948 11.654 40.1041C11.5116 40.6942 11.4143 41.3209 11.4161 41.9383C11.4161 41.9655 11.375 41.9711 11.3688 41.9445C11.1946 41.2257 10.958 40.0275 11.0736 39.605Z" fill="white"/>
<path d="M12.762 40.8886C12.6923 41.4022 12.6588 41.9171 12.6812 42.4348C12.6923 42.7187 12.7226 43.0008 12.7609 43.2812C12.7609 43.2833 12.7609 43.2857 12.762 43.2868V43.2881C12.7009 43.274 12.6371 43.2719 12.5719 43.2812C12.5847 43.2771 12.5512 43.2792 12.5371 43.2792H12.5329C12.5233 43.2781 12.5091 43.2771 12.5043 43.2761C12.4326 43.2585 12.4264 43.2509 12.3695 43.215C12.2953 43.1671 12.217 43.0798 12.1649 42.9908C12.0266 42.7515 11.9963 42.4607 11.9852 42.1896C11.9649 41.6578 12.0104 41.1266 12.1097 40.6055C12.1946 40.64 12.2684 40.6717 12.3915 40.7248C12.5133 40.7779 12.6395 40.8303 12.7626 40.8873V40.8886H12.762Z" fill="white"/>
<g opacity="0.8" filter="url(#filter0_i_899_1226)">
<path opacity="0.8" d="M26.3396 67.7702C23.996 67.7702 21.7731 67.6222 19.9078 67.477L19.3936 67.437L18.88 67.3656C18.6555 67.3339 18.3502 67.3011 18.0557 67.2691C16.2611 67.0738 12.9238 66.7103 9.23989 64.9803L8.6677 64.7105L8.13413 64.4119C1.0539 60.443 -1.59601 54.4703 -3.02288 51.2592C-3.11359 51.0554 -3.22396 50.8071 -3.32743 50.5784C-4.04794 49.1043 -4.50322 47.7753 -4.88951 46.5589L-4.97539 46.2871L-5.04679 46.0232C-6.07461 42.3707 -6.33432 39.2165 -5.86352 36.0975C-5.39169 32.9657 -4.23143 30.1164 -2.21615 27.134L-1.17108 25.4274C-0.958966 25.0829 -0.809273 24.7035 -0.728565 24.3069C0.0681656 20.358 1.87616 17.5608 2.76464 16.225C3.00917 14.6078 3.41237 13.0188 3.96836 11.4809L4.05113 11.2477L4.13977 11.0204C4.15426 10.9804 4.17289 10.9239 4.20703 10.8207C4.60609 9.61873 5.54182 6.80565 7.93753 3.85188L8.83739 2.76199L9.75415 1.93387C12.1092 -0.20627 14.915 -1.79008 17.9639 -2.70063C19.6664 -3.20833 21.4213 -3.51872 23.1944 -3.62564L23.3659 -3.63844L23.6242 -3.65051C23.9308 -3.665 24.2364 -3.6719 24.5344 -3.6719C25.6408 -3.67396 26.7456 -3.58084 27.8358 -3.39388C28.5174 -3.27903 29.2172 -3.35905 29.8549 -3.62464C31.7453 -4.41344 33.7327 -4.94698 35.7637 -5.21117C35.9334 -5.23532 36.0814 -5.25394 36.198 -5.26912C36.5184 -5.30913 37.0275 -5.36918 37.6428 -5.42781C38.7154 -5.53025 40.3603 -5.65234 42.1434 -5.65234C45.6256 -5.65234 48.6232 -5.20121 51.3066 -4.27341L51.5349 -4.19408L51.758 -4.11024C57.6797 -1.87251 60.6942 1.25372 62.8623 4.0116L62.9651 4.14298L63.2634 4.40824C65.2218 5.94062 66.8873 7.81381 68.1797 9.93843L68.5839 10.6034L68.925 11.3008C71.8215 17.2132 70.901 22.6724 70.554 24.7235L70.5354 24.8332C70.286 26.3463 69.889 27.8315 69.3503 29.2673C69.152 30.6518 68.826 32.0148 68.3763 33.3389C67.6075 35.6929 66.4731 37.911 65.0148 39.9125C64.1753 41.1 63.2272 42.2072 62.1828 43.2195C61.8134 43.5765 61.574 44.0466 61.5027 44.555C61.4575 44.8681 61.4061 45.1778 61.3474 45.4845C60.4983 50.0389 58.5065 53.2086 57.6935 54.471L55.2354 58.0014C52.275 61.6895 48.7625 64.1221 44.5123 65.4293L43.4824 65.7522L42.37 65.9457C41.0977 66.1702 39.8081 66.2819 38.5161 66.2792C38.3378 66.2792 38.1584 66.2792 37.9594 66.274H37.9021L37.6828 66.2878L37.4476 66.2964H37.441C36.9485 66.313 36.4601 66.3933 35.9883 66.5358C33.2429 67.3756 30.1374 67.7702 26.3396 67.7702Z" stroke="url(#paint2_linear_899_1226)" stroke-width="0.375298" stroke-miterlimit="10"/>
<path opacity="0.8" d="M26.3393 65.3416C24.0936 65.3416 21.9397 65.1984 20.1293 65.0557L19.7002 65.0225L19.2711 64.9632C19.0035 64.926 18.6769 64.8918 18.3613 64.856C16.6185 64.6666 13.7047 64.3496 10.4519 62.8241L9.9742 62.5996L9.52996 62.3499C3.28198 58.8456 0.970425 53.6424 -0.411267 50.5327C-0.50991 50.3109 -0.630968 50.0385 -0.743752 49.7912C-1.38735 48.4709 -1.80951 47.2513 -2.1658 46.1293L-2.23719 45.9031L-2.29928 45.683C-3.21328 42.4343 -3.44953 39.6623 -3.04186 36.9576C-2.63418 34.2523 -1.60705 31.7528 0.184387 29.1181L1.52331 26.9317C1.76026 26.5444 1.92271 26.116 2.00238 25.6694C2.66909 21.9551 4.42363 19.3217 5.22105 18.1232L5.32176 17.9714L5.35901 17.9114C5.37557 17.8748 5.39109 17.84 5.40627 17.8021C5.4549 17.6441 5.50284 17.491 5.5494 17.3451C5.75911 15.8213 6.12919 14.3244 6.65414 12.8785L6.72588 12.684L6.80244 12.4888C6.82659 12.4267 6.84935 12.3595 6.91661 12.1577C7.29635 11.0133 8.08687 8.63759 10.1546 6.08839L10.9048 5.18025L11.6663 4.49148C13.7085 2.63589 16.1411 1.26282 18.7848 0.473334C20.2858 0.0277172 21.8327 -0.244068 23.3955 -0.336848L23.5386 -0.348237L23.7532 -0.358236C24.0143 -0.370653 24.2747 -0.376172 24.5285 -0.376172C25.6498 -0.378241 26.768 -0.701069 27.8665 -0.475501C28.714 -0.30029 29.5952 -0.3941 30.3867 -0.743834C31.8657 -1.39605 33.8568 -1.65646 36.1365 -1.94031C36.2989 -1.96411 36.4403 -1.9817 36.5504 -1.9955C36.8501 -2.03344 37.3295 -2.09 37.9093 -2.14484C38.9178 -2.24142 40.4699 -2.35938 42.1385 -2.35938C45.2975 -2.35938 47.9888 -1.95963 50.3669 -1.13738L50.557 -1.0715L50.7429 -0.999754C55.992 0.983453 58.586 3.63818 60.6072 6.21221C60.7193 6.35535 60.8345 6.50193 60.8772 6.55263L60.9252 6.5954L61.3087 6.93686L61.3601 6.98963C63.1064 8.32717 64.5881 9.97824 65.7301 11.858L66.0663 12.4122L66.3523 12.9931C68.8439 18.0787 68.063 22.7056 67.7298 24.6816L67.7119 24.7868C67.4753 26.2223 67.0886 27.6291 66.5575 28.9836C66.3902 30.3018 66.0901 31.5997 65.6621 32.8579C64.9823 34.9406 63.979 36.9038 62.689 38.6745C61.8157 39.9162 60.8058 41.0554 59.6787 42.0718C59.1558 42.5416 58.8257 43.1886 58.7526 43.8878C58.6981 44.4027 58.6247 44.9032 58.5315 45.3947C57.7827 49.4149 56.0327 52.1955 55.2315 53.4406L53.2403 56.3351C50.5942 59.7351 47.4587 61.9588 43.6602 63.1297L42.8021 63.3984L41.8722 63.5595C40.7627 63.7554 39.6376 63.8526 38.5108 63.8506C38.347 63.8506 38.1797 63.8506 37.9996 63.8461H37.9486H37.842C37.842 63.8461 37.8065 63.8461 37.7334 63.8512L37.5368 63.8633L37.3388 63.8706L36.9432 63.8854C36.4203 63.904 35.9026 63.994 35.4039 64.153C32.8749 64.9605 29.9525 65.3416 26.3393 65.3416Z" stroke="url(#paint3_linear_899_1226)" stroke-width="0.375298" stroke-miterlimit="10"/>
<path opacity="0.8" d="M26.3397 62.4879C24.1941 62.4879 22.107 62.3485 20.3504 62.2119L20.0079 62.1854L19.6661 62.1381C19.3564 62.0954 19.0081 62.0574 18.6711 62.0202C17.0055 61.8391 14.4901 61.5652 11.6695 60.2422L11.2867 60.0628L10.929 59.8631C5.51087 56.8256 3.52111 52.3449 2.20357 49.3797C2.09148 49.1259 1.96421 48.8396 1.84625 48.5744C1.27405 47.4107 0.891895 46.3008 0.566649 45.2729L0.509395 45.0926L0.459383 44.9156C-0.341143 42.0722 -0.55257 39.6817 -0.208009 37.3936C0.141726 35.0734 1.05297 32.9107 2.65782 30.586L2.84889 30.3101L3.05548 30.0448C3.18551 29.8789 3.31072 29.7151 3.43385 29.5547L4.2392 28.0778C4.5034 27.5953 4.68171 27.0704 4.76622 26.5268C5.2784 23.2133 6.87462 20.8193 7.61134 19.7153L7.61479 19.7094C7.65722 19.6463 7.71137 19.5663 7.7393 19.5221L7.89658 19.271C7.95832 19.1365 8.03972 18.9578 8.11111 18.7702C8.18285 18.5464 8.26804 18.2698 8.36082 17.9835C8.53535 16.5721 8.8699 15.1849 9.35794 13.8491L9.41348 13.6932L9.47452 13.5356C9.52591 13.4049 9.56385 13.291 9.63835 13.0672C9.99085 12.008 10.6444 10.042 12.3831 7.89707L12.9846 7.16966L13.592 6.62126C15.3203 5.05056 17.3794 3.88789 19.6175 3.21981C20.9164 2.8342 22.2557 2.60036 23.6084 2.5231L23.7226 2.51448L23.8964 2.50654C24.1109 2.49654 24.3255 2.49171 24.54 2.49171C25.7034 2.48999 26.8619 2.63726 27.9873 2.93009C28.962 3.1767 29.9926 3.06771 30.8939 2.62313C32.3366 1.92297 34.2663 1.18004 36.5267 0.902388C36.6819 0.880314 36.813 0.863065 36.9196 0.849614C37.2007 0.814434 37.6483 0.76167 38.1919 0.706485C39.138 0.615775 40.5928 0.507812 42.149 0.507812C44.9848 0.507812 47.3699 0.855826 49.4441 1.57254L49.5966 1.62565L49.7452 1.68118C54.5663 3.50366 56.7247 5.89041 58.3692 7.98364C58.7317 8.44478 58.7866 8.51652 59.0356 8.73761L59.3426 9.01077L59.4619 9.13287C60.2552 9.74749 61.8773 11.0126 63.2969 13.3528L63.5663 13.796L63.7939 14.2602C65.8809 18.5191 65.2315 22.3655 64.9197 24.2146L64.9024 24.3166C64.6793 25.6721 64.3016 26.9979 63.7767 28.2675L63.7625 28.3841C63.6239 29.5985 63.3555 30.7947 62.962 31.9522C62.3719 33.7646 61.4993 35.4728 60.3766 37.0131C59.4374 38.3593 58.3085 39.5623 57.0251 40.5857C56.7199 40.8278 56.4699 41.1323 56.2919 41.479C56.1139 41.826 56.0125 42.2067 55.9939 42.5961C55.959 43.3601 55.8711 44.1213 55.7307 44.8732C55.0826 48.3592 53.5609 50.7759 52.7842 51.9824L51.2407 54.2632C48.914 57.3691 46.1561 59.3796 42.8233 60.4015L42.1376 60.6161L41.3957 60.7451C40.4476 60.9127 39.486 60.9958 38.523 60.9937C38.3733 60.9937 38.2212 60.9937 38.0567 60.9896H38.0188H37.8543C37.8263 60.9896 37.7411 60.9896 37.568 61.0003L37.4107 61.0103L37.2586 61.0162L36.4633 61.0455C35.9062 61.0644 35.3547 61.1638 34.826 61.3404C32.5097 62.1209 29.7767 62.4879 26.3397 62.4879Z" stroke="url(#paint4_linear_899_1226)" stroke-width="0.351842" stroke-miterlimit="10"/>
<path opacity="0.8" d="M26.3448 59.6227C24.2943 59.6227 22.2784 59.4875 20.5776 59.3554L20.3207 59.3354L20.0641 59.3002C19.713 59.2515 19.3432 59.2108 18.9849 59.1722C17.4193 59.0011 15.2785 58.7687 12.889 57.6481L12.6031 57.5129L12.3361 57.3635C7.7475 54.7888 6.05953 50.9904 4.82649 48.2146C4.69853 47.9286 4.5654 47.6275 4.43399 47.3392C3.90973 46.2852 3.57587 45.2729 3.29822 44.4068L3.25546 44.2716L3.21821 44.1395C1.87653 39.3712 2.38078 36.0263 5.01688 32.2098L5.16002 32.0022L5.31522 31.8035C5.49044 31.5797 5.65427 31.3644 5.81568 31.1599C6.05884 30.8409 6.3051 30.516 6.5731 30.1821C6.73968 29.9741 6.87385 29.742 6.97146 29.494L7.27394 28.7218C7.40225 28.3931 7.48261 28.0482 7.51296 27.6967C7.77544 24.6377 9.26301 22.4079 9.99973 21.3028L10.0039 21.297C10.0577 21.2156 10.1391 21.0942 10.1663 21.0504L10.3388 20.7751L10.3915 20.7034C10.4833 20.5182 10.6626 20.1271 10.8206 19.7173C10.9058 19.4369 11.0403 19.0065 11.1717 18.615C11.1717 18.6002 11.1717 18.5836 11.1776 18.5664C11.3187 17.2847 11.6139 16.0248 12.0574 14.8138L12.0995 14.6965L12.1454 14.5786C12.2254 14.3747 12.282 14.2043 12.3599 13.9691C12.6745 13.0237 13.2008 11.441 14.6115 9.7016L15.0626 9.15527L15.5155 8.74621C18.8466 5.72346 22.5743 5.46271 23.8201 5.3789L23.906 5.37234L24.0377 5.36613C24.2071 5.3582 24.3768 5.35475 24.5427 5.35475C26.0216 5.35993 27.4851 5.65896 28.8474 6.23495C29.0889 6.33532 29.3493 6.38085 29.6104 6.36843C29.8715 6.35601 30.1264 6.286 30.3571 6.16356H30.3643C31.6308 5.42891 33.951 4.09723 36.9092 3.74094C37.052 3.71955 37.1838 3.70334 37.2804 3.69093C37.5408 3.65816 37.956 3.60953 38.4668 3.56021C39.3508 3.47571 40.7084 3.375 42.1515 3.375C44.6641 3.375 46.7439 3.6723 48.5105 4.28313L48.625 4.32245L48.7364 4.36487C52.868 5.92592 54.6498 7.88498 56.1201 9.75747C56.5157 10.2579 56.6923 10.4904 57.1352 10.8808L57.3652 11.086L57.5498 11.2757L57.6929 11.3889C58.3931 11.9307 59.6954 12.9399 60.8512 14.841L61.0537 15.1735L61.2244 15.5219C62.9051 18.9547 62.3795 22.0682 62.097 23.7417L62.0808 23.841C61.8814 25.0578 61.5351 26.2457 61.0492 27.3784L61.0085 27.4756C61.0043 27.4967 60.9985 27.5274 60.9899 27.5722C60.9678 27.6874 60.955 27.7791 60.9398 27.8957L60.9226 28.0271C60.8081 29.0532 60.5825 30.0638 60.2497 31.0409C59.7492 32.5826 59.0077 34.0354 58.0533 35.3451C57.1093 36.6854 56.0508 37.777 54.863 38.641C54.3415 39.0218 53.9155 39.5188 53.6189 40.0924C53.3223 40.666 53.1629 41.3009 53.1536 41.9466C53.1436 42.7519 53.0646 43.5549 52.918 44.3468C52.3703 47.2999 51.11 49.2996 50.3257 50.5182L49.2041 52.1996C47.1957 55.0054 44.8265 56.7972 41.9749 57.6702L41.8241 57.7174C41.582 57.7936 41.3351 57.8533 41.0853 57.8964L40.9043 57.9278C40.1175 58.0671 39.3201 58.1365 38.5213 58.1344C38.3861 58.1344 38.2488 58.1344 38.0998 58.1309H38.0757C38.0078 58.1309 37.9326 58.1309 37.8526 58.1309C37.7967 58.1309 37.6494 58.1309 37.3831 58.1475L37.2652 58.1544L37.15 58.1589C36.7675 58.173 36.2919 58.1896 35.8676 58.2082C35.2865 58.2323 34.7122 58.3448 34.1649 58.5421C32.1123 59.2753 29.6004 59.6227 26.3448 59.6227Z" stroke="url(#paint5_linear_899_1226)" stroke-width="0.328386" stroke-miterlimit="10"/>
<path opacity="0.8" d="M26.3398 56.7611C24.3866 56.7611 22.4407 56.6304 20.7944 56.5024L20.6227 56.4893L20.4516 56.4652C20.0577 56.4107 19.6649 56.3679 19.2865 56.3272C17.8475 56.1706 16.0568 55.9754 14.0984 55.0569L13.907 54.9669L13.7294 54.8676C9.97059 52.7598 8.56579 49.5957 7.43588 47.053C7.29689 46.7398 7.14961 46.4167 7.00647 46.1018C6.56396 45.2185 6.26424 44.3138 6.01832 43.5395L5.98969 43.4498L5.96451 43.3618C4.85737 39.4282 5.22297 36.9314 7.36345 33.8323L7.45865 33.6944L7.56246 33.5623C7.74906 33.3233 7.91978 33.1001 8.08293 32.8849C8.64167 32.1523 9.17869 31.4473 9.98198 30.5899C10.1579 30.4016 10.2634 30.1581 10.28 29.9011L10.341 28.9754L10.3172 28.6722L10.3279 28.3577C10.4117 25.8195 11.6868 23.9098 12.3691 22.884C12.4481 22.7654 12.5301 22.6433 12.5788 22.5653L12.694 22.3822L12.8005 22.239C12.9278 22.0311 13.2624 21.3216 13.5155 20.6407C13.6028 20.3545 13.7718 19.8088 13.9205 19.376C13.9643 19.238 13.9684 19.2046 14.0043 18.9083C14.1205 17.8373 14.3671 16.7843 14.7386 15.7731L14.7665 15.6941L14.7972 15.6148C14.9031 15.3444 14.9769 15.1236 15.0621 14.8674C15.3315 14.0565 15.7378 12.8341 16.8208 11.499L17.1226 11.1341L17.4212 10.8637C19.7552 8.7446 22.2975 8.34347 24.0134 8.22827L24.0714 8.2231H24.16C24.2845 8.21758 24.4083 8.21482 24.5298 8.21482C25.9953 8.21482 27.7481 8.91774 28.6686 9.34266C28.8887 9.44338 29.1267 9.49994 29.3688 9.50891C29.6109 9.51753 29.8523 9.47821 30.0789 9.39337C30.6518 9.18573 31.2099 8.94016 31.7497 8.65803C32.9206 7.97856 34.8633 6.85658 37.2755 6.57549C37.4087 6.55548 37.528 6.54031 37.6266 6.52754C37.8691 6.49754 38.252 6.45615 38.7259 6.40648C39.5485 6.32784 40.8081 6.23438 42.139 6.23438C44.3275 6.23438 46.102 6.48029 47.563 6.98523L47.6389 7.01179L47.7103 7.03973C51.1611 8.34347 52.5345 9.84174 53.8555 11.5232C54.2846 12.0653 54.5877 12.453 55.2179 13.0166L55.371 13.1532L55.5138 13.2963C55.6424 13.4236 55.7808 13.5405 55.928 13.6461C56.5202 14.1044 57.5129 14.8725 58.3934 16.3222L58.5279 16.5439L58.6421 16.7764C59.9182 19.3805 59.5082 21.8093 59.2629 23.2603L59.2467 23.3589C59.0836 24.3609 58.798 25.3387 58.3962 26.2706V26.2779C58.2851 26.519 58.2082 26.7742 58.1682 27.0367C58.1337 27.2198 58.1123 27.3671 58.0916 27.5302L58.0744 27.663C57.9826 28.5001 57.7995 29.3248 57.5287 30.1218C57.1204 31.3942 56.5095 32.5921 55.7201 33.6695C54.5543 35.3324 53.2067 36.5024 51.5833 37.2456C51.1887 37.4257 50.8517 37.7109 50.6096 38.0706C50.3671 38.43 50.2288 38.8494 50.2098 39.2823C50.2023 39.4599 50.1991 39.6058 50.2043 39.6872C50.2843 40.9382 50.375 42.3558 50.0964 43.8161C49.6494 46.2315 48.6264 47.8549 47.8576 49.0469C47.8576 49.0469 44.3302 53.9563 41.1205 54.9362L40.7749 55.0441L40.4038 55.109C39.7792 55.22 39.146 55.2749 38.5113 55.2728C38.3913 55.2728 38.2682 55.2728 38.1361 55.2694H38.1243C38.0395 55.2694 37.9471 55.2694 37.8426 55.2694C37.7167 55.2694 37.5114 55.2694 37.1924 55.2914L37.1145 55.2966H37.0375C35.8093 55.3408 34.6487 55.3825 34.3258 55.4453C34.1533 55.4722 33.985 55.5215 33.8253 55.5925C32.0087 56.3886 29.6264 56.7611 26.3398 56.7611Z" stroke="url(#paint6_linear_899_1226)" stroke-width="0.30493" stroke-miterlimit="10"/>
<path opacity="0.8" d="M26.3425 53.8966C24.4872 53.8966 22.6099 53.7701 21.0178 53.6462L20.9326 53.6397L20.8474 53.6276C20.4118 53.5676 19.9986 53.5224 19.5982 53.479C18.2434 53.3313 16.8424 53.1792 15.3155 52.4632L15.2196 52.4173L15.131 52.368C12.1986 50.7232 11.1094 48.2664 10.0529 45.8876C9.90289 45.5503 9.74768 45.2012 9.5873 44.8542C9.22963 44.1475 8.97647 43.3894 8.74918 42.6713L8.73469 42.6272L8.72193 42.582C7.84173 39.451 8.06558 37.8523 9.72319 35.4542L9.77114 35.3828L9.82253 35.3162C10.0171 35.0682 10.194 34.8365 10.364 34.6126C11.1608 33.5674 11.8495 32.6641 13.393 31.2397L13.3971 31.2352C13.5106 31.1272 13.5899 30.9886 13.6261 30.8361C13.6624 30.684 13.6534 30.5244 13.601 30.3771L13.323 29.5838C13.2671 29.3337 13.2278 29.0802 13.2057 28.825V28.8164L13.1885 28.6018L13.194 28.4446C13.2505 26.7218 14.157 25.3635 14.7561 24.4644C14.8499 24.3212 14.9392 24.1905 15.0085 24.0788L15.0658 23.9873L15.1303 23.9008C15.4486 23.4717 15.9656 22.2839 16.2374 21.5478C16.3088 21.3212 16.492 20.7125 16.6444 20.2713C16.7527 19.9392 16.8231 19.5964 16.8538 19.2484C16.9438 18.3875 17.1414 17.5407 17.4418 16.7288L17.456 16.6888L17.4718 16.6495C17.6039 16.3098 17.6971 16.0307 17.7871 15.7603C18.0268 15.0402 18.2979 14.2234 19.0522 13.2929L19.204 13.1097L19.3519 12.9762C21.0099 11.47 22.8272 11.1665 24.2289 11.0737H24.2582H24.3041C24.3827 11.0737 24.4614 11.0686 24.5393 11.0686C25.9034 11.0686 26.9519 11.628 27.6455 11.9984L27.8073 12.0843L27.8314 12.0971C28.0218 12.2002 28.1891 12.2902 28.3443 12.3668C28.7754 12.583 29.2707 12.6337 29.7367 12.5099C30.6866 12.2544 32.1686 11.6925 33.1654 11.1444L33.1861 11.1324C34.2346 10.5243 35.8139 9.60893 37.6646 9.40578C37.7812 9.38715 37.8929 9.3737 37.9981 9.3599C38.2127 9.333 38.57 9.28851 39.007 9.24919C39.7682 9.17779 40.9302 9.08984 42.1484 9.08984C44.0136 9.08984 45.4819 9.28437 46.6377 9.68343L46.6756 9.69688L46.7143 9.71136C49.4828 10.7575 50.4927 11.8525 51.6174 13.2873C52.0755 13.8702 52.508 14.4207 53.3285 15.1512L53.4047 15.2226L53.4765 15.294C53.6982 15.5179 53.9373 15.7238 54.1915 15.91C54.6836 16.2911 55.3579 16.8133 55.9639 17.8101L56.0312 17.9212L56.0884 18.0377C56.9586 19.815 56.6689 21.5327 56.4575 22.7864L56.4409 22.8854C56.3144 23.6762 56.0874 24.4478 55.7663 25.1818C55.579 25.6043 55.4459 26.0489 55.3704 26.5048C55.3203 26.7694 55.291 26.9763 55.2665 27.1677L55.2493 27.3036C55.1806 27.952 55.0403 28.5905 54.8309 29.2075C54.5136 30.2091 54.0338 31.1514 53.4106 31.9968C52.3593 33.5061 51.1935 34.4366 49.6449 34.9292C48.903 35.1641 48.2646 35.6477 47.8376 36.2982L47.7148 36.4872L47.5789 36.6424C47.1854 37.0901 47.2965 38.825 47.3644 39.8607C47.4358 40.9972 47.5124 42.1723 47.2999 43.2787C46.9509 45.1702 46.1407 46.447 45.4153 47.5697C45.4153 47.5697 42.722 51.4554 40.2918 52.1935L40.1148 52.2494L39.9289 52.2814C39.4661 52.3646 38.9966 52.4053 38.5265 52.4032C38.4207 52.4032 38.312 52.4032 38.1968 52.4032C38.0947 52.4032 37.9823 52.4032 37.8578 52.4032C37.6926 52.4032 37.4287 52.4032 37.0269 52.4311H36.9883H36.9496C35.3196 52.4905 34.3363 52.5253 33.7928 52.6312C33.4268 52.696 33.0699 52.8026 32.7284 52.9495C31.2729 53.5948 29.2404 53.8966 26.3425 53.8966Z" stroke="url(#paint7_linear_899_1226)" stroke-width="0.30493" stroke-miterlimit="10"/>
</g>
</g>
<defs>
<filter id="filter0_i_899_1226" x="-6.27734" y="-5.83984" width="77.5294" height="73.9376" filterUnits="userSpaceOnUse" color-interpolation-filters="sRGB">
<feFlood flood-opacity="0" result="BackgroundImageFix"/>
<feBlend mode="normal" in="SourceGraphic" in2="BackgroundImageFix" result="shape"/>
<feColorMatrix in="SourceAlpha" type="matrix" values="0 0 0 0 0 0 0 0 0 0 0 0 0 0 0 0 0 0 127 0" result="hardAlpha"/>
<feOffset dx="0.0938245" dy="0.140737"/>
<feGaussianBlur stdDeviation="0.11728"/>
<feComposite in2="hardAlpha" operator="arithmetic" k2="-1" k3="1"/>
<feColorMatrix type="matrix" values="0 0 0 0 0 0 0 0 0 0 0 0 0 0 0 0 0 0 0.12 0"/>
<feBlend mode="normal" in2="shape" result="effect1_innerShadow_899_1226"/>
</filter>
<radialGradient id="paint0_radial_899_1226" cx="0" cy="0" r="1" gradientUnits="userSpaceOnUse" gradientTransform="translate(32 35.3535) rotate(90) scale(35.9512)">
<stop offset="0.166667" stop-color="#073183"/>
<stop offset="1" stop-color="#0054F9"/>
</radialGradient>
<radialGradient id="paint1_radial_899_1226" cx="0" cy="0" r="1" gradientUnits="userSpaceOnUse" gradientTransform="translate(32.0078 35.3535) rotate(90) scale(35.9512)">
<stop offset="0.166667" stop-color="#073183"/>
<stop offset="1" stop-color="#0054F9"/>
</radialGradient>
<linearGradient id="paint2_linear_899_1226" x1="-6.08978" y1="-5.65234" x2="67.2467" y2="71.3186" gradientUnits="userSpaceOnUse">
<stop offset="0.205697" stop-color="#89D0FF"/>
<stop offset="0.398413" stop-color="#EBBF9A"/>
<stop offset="0.601546" stop-color="#EB8280"/>
<stop offset="0.841139" stop-color="#A281FF"/>
</linearGradient>
<linearGradient id="paint3_linear_899_1226" x1="-3.23432" y1="-2.35937" x2="64.3739" y2="68.8896" gradientUnits="userSpaceOnUse">
<stop offset="0.205697" stop-color="#89D0FF"/>
<stop offset="0.398413" stop-color="#EBBF9A"/>
<stop offset="0.601546" stop-color="#EB80DA"/>
<stop offset="0.841139" stop-color="#A281FF"/>
</linearGradient>
<linearGradient id="paint4_linear_899_1226" x1="-0.367357" y1="0.507469" x2="61.5113" y2="66.0332" gradientUnits="userSpaceOnUse">
<stop offset="0.205697" stop-color="#89D0FF"/>
<stop offset="0.398413" stop-color="#EBBF9A"/>
<stop offset="0.601546" stop-color="#EB8280"/>
<stop offset="0.841139" stop-color="#A281FF"/>
</linearGradient>
<linearGradient id="paint5_linear_899_1226" x1="2.49977" y1="3.375" x2="58.6362" y2="63.1597" gradientUnits="userSpaceOnUse">
<stop offset="0.205697" stop-color="#89D0FF"/>
<stop offset="0.398413" stop-color="#EBBF9A"/>
<stop offset="0.601546" stop-color="#EB80E7"/>
<stop offset="0.841139" stop-color="#A281FF"/>
</linearGradient>
<linearGradient id="paint6_linear_899_1226" x1="5.35541" y1="6.23437" x2="55.7604" y2="60.2736" gradientUnits="userSpaceOnUse">
<stop offset="0.205697" stop-color="#89D0FF"/>
<stop offset="0.398413" stop-color="#EBBF9A"/>
<stop offset="0.601546" stop-color="#EB80D3"/>
<stop offset="0.841139" stop-color="#A281FF"/>
</linearGradient>
<linearGradient id="paint7_linear_899_1226" x1="8.21492" y1="9.08984" x2="52.8836" y2="57.4054" gradientUnits="userSpaceOnUse">
<stop offset="0.205697" stop-color="#89D0FF"/>
<stop offset="0.398413" stop-color="#EBBF9A"/>
<stop offset="0.601546" stop-color="#A280EB"/>
<stop offset="0.841139" stop-color="#A281FF"/>
</linearGradient>
</defs>
</svg>
